/* XPM */
static const char * zinjai_xpm[] = {
"64 64 67 1",
" 	c None",
".	c #F7F7AD",
"+	c #F7F7A5",
"@	c #EFEF94",
"#	c #F7F79C",
"$	c #F7F7C6",
"%	c #D6CE5A",
"&	c #A5A539",
"*	c #9C9431",
"=	c #948C31",
"-	c #8C8429",
";	c #C6BD4A",
">	c #DEDE6B",
",	c #EFE784",
"'	c #212108",
")	c #211808",
"!	c #181008",
"~	c #101000",
"{	c #292908",
"]	c #525218",
"^	c #DED663",
"/	c #393910",
"(	c #080800",
"_	c #312910",
":	c #313110",
"<	c #181808",
"[	c #000000",
"}	c #5A5A18",
"|	c #F7EF94",
"1	c #B5AD42",
"2	c #100800",
"3	c #4A4A18",
"4	c #636321",
"5	c #CEC652",
"6	c #EFEF8C",
"7	c #393110",
"8	c #6B6B21",
"9	c #949431",
"0	c #B5B542",
"a	c #ADA539",
"b	c #7B7321",
"c	c #E7E77B",
"d	c #080000",
"e	c #8C8C29",
"f	c #7B7B29",
"g	c #BDBD4A",
"h	c #524A18",
"i	c #A59C31",
"j	c #6B6321",
"k	c #BDB542",
"l	c #E7E773",
"m	c #423910",
"n	c #5A5218",
"o	c #292108",
"p	c #4A4210",
"q	c #948C29",
"r	c #847B29",
"s	c #736B21",
"t	c #C6C64A",
"u	c #E7DE6B",
"v	c #424210",
"w	c #9C9C31",
"x	c #BDBD42",
"y	c #737321",
"z	c #848429",
"A	c #DEDE63",
"B	c #CECE52",
"                                                                ",
"                                                                ",
"                                                                ",
"                                                                ",
"                                                                ",
"                             ..........                         ",
"                           ++@+@+@+@+@++                        ",
"                          +@+@+@+#+@+#@++                       ",
"                        $+@+@+@+@+@+@+@+@+$                     ",
"               ......+.++@+@+#+@+@+@+@+@+#++.+.....             ",
"             ++@+@+@+@+@+#+@+@+#+@+#+@+#@+@+@+@+@+++            ",
"            +@+@+@+#+@+@+@+#@+@+@+@+@+@+@+@+@+@+#@+@+           ",
"           +@+@+@+@+@+@+@+@+#+@+@+#@+@+#+@+@+@+@+@+@++          ",
"          ++@+#+@+#@+@+#+@+@+@+@+@+#+@+@+#+@+#+@+#+@+@+         ",
"         +@+@+@+#@+#+@+@+#@+@+@+#+@+@+@+@+@+@+@+@+@+@+@+        ",
"        ++@+#@+@+@#@@#@#@#@##@+@+@+@+@+#+@+@+@+@+@+#+@+#+       ",
"       +@+@@%&*===-=====&;>+@+#+@+@+#+@#@+#+@+#+@+@+@+@+@+      ",
"      @#+@@,=')!~!~!~!~!{];#+@+@+@+@+@+@+@+@+@+@+@+@+#+@+@+     ",
"     @+@#+^&/(~!'{_:<~([<};+@+@+@+|+@+@+#+@+@+@+#+@+@+@+@+#+    ",
"    +@+#@+1/2[(<_3]4{2[[(45@+@+#+@+@+#+@+@+#+@+@+@+@+@+#+@+@+   ",
"    +@+@@6='<<78901a/([[_0>#+@+@#+@+@+@+@+@+@+@+@+#+@+@+@+@+++  ",
"   .@+@+6>42:b1^c6c>3d((4c,+@+@+@+#+@+#@+#+@+#+@+@+@+@+@+#+@++  ",
"   .+@+@@c13e5>c6@5f)[!/a6@#+@+#@@>;^c@#@+@+@+@+@+c^50>+@+@+@.  ",
"   .@+@+@,>g>@@+@@*<(['&^@+@+#@+@,0hi^c+@+#@+@+#+@^&j/k#+@+@++  ",
"   .+@+@@@,>,@##l;m(((n%c+@+@+#@6c-'8%c#+@+#+@+@+#g37o&#@+#+@.  ",
"   .@+#+#####+@+58![(:&6@#+@+@+#,>](p5c@+#@+@+@+@+q!<!9#+@+@++  ",
"   .+@+@+@+@+@6lr<(['=%@@#@+#+@+c53[h^c+@+@+@+##@@s(<:1#@+@+#+  ",
"   .@+@+@+@+@+>57[[(3>,#+@+@+@+@>1/(]>,#+@+@+@+@@,3[<45@+@+@++  ",
"   .+@+@+#+@@@;4<[~7&,@#@+@6>%5t=3<d:&k5>@|+c^%;0a'[~p-5^c6+@.  ",
"   .@+@+@+@+@,-)([ogu##+@+6cgb84_~([<h}4g,@#^ir437([(:v4w5c#++  ",
"   .+@+#+@+@l;v((~4>,#@+@+c%j<!~([[[[~!<e6@@a_<~~([[[(2!3x>#++  ",
"   .@+@+@+@+%f<[~3k#@+#@+@>k'[[[[[[[[[[[]@@@4[[[[[[[[[[['i^@++  ",
"   .+@+@+#@c-<([_&^@#@+#+@,^f{')[[[(!'{:a@|#1/_'2[[[(''{s%c@++  ",
"   .@+#+@+c^:[((4>,+#+@+@+6,^g1&<[~]-gg;l@#@l;g03!~~3gg;^c@@++  ",
"   .+@+@@@gn![~/a,@#@+@+#@@@c>5a)[<a5>>l,+@+,l>%}~):=u>>,@@#@+  ",
"   .@+@+@,8([['a^#@+#+@+@+#+#+^1'[:>,#+@+@+#+@@,s~_y5+##@+@##+  ",
"   .+@+@^1{[((n^c#@@c5^l6@+@+@54<[3,@@+#@+#@+@6l}(7&^#@+#@+@#+  ",
"   .@+@@k3([(m1@@#@#5f&;l+@+@+a:~d4@##@+#@+#@+c^3[v5c@+@+#+@+@  ",
"   .+@,>s!(['a^@@+c%fostl@+@+@543:1@#@+@+#@+#+,c=_z>,+@+@+@+@.  ",
"   .@+>5_[[(4,@#+@^*:[v5>+#+@+^aa1A#@+#+@+#@+@@c5956@#+@+@+@#+  ",
"   .+@;3~[(:i,cc%1h<!(4>,+@+#@c^^^c+#@+@+@+@+@@6u%l@@#@+#+@#@+  ",
"   .@+r~[[<*B,>%z:([[<r6@#+@+#@@6@@#+@+@+#+@+#@#@@@|+@+@+@+@++  ",
"   .@@nd[[d<{m:_!([[~]g@|+@+@+@@@##@+#+@+@+#@+#@@@##@+#+@+@#@.  ",
"   .@@7[[[[[[[[[[[[[og>##@+@+@+##@+@+@+#@+@+#@+#+#@+#@+@+#+@++  ",
"    +@&{oo{::7:::{_/*>,#+@+##+@+@+#+@+@+#+@+@+@+@+#@+#+@+@#@++  ",
"    @@,>>l>u>l>u>>lc,@#@+@+@+@+@+@+@+@+@+@+@+#+@+@+@+@+#@+@|+   ",
"     #@,6,,6,,6,6,6,@@#+@+@+@+@+#+@+@+#+@+@+@+@+@+@+@+@+@+@+    ",
"      ++@+@+@+@+@+@+###@+#+@+#+@#@+#+@#@+#+@+@+@+#+@+@+#+@.     ",
"       ++@+@+@+@+@+@+@+@+@+#@+@+@+@+@+@+@+@+#+@+@+@+#+@+@.      ",
"        ++@+#+@+@+#+@+@+@+@+@+#@+#+@+@+#+@+@+@+#+@+@+@+@.       ",
"         ++@+@+#+@#@+#+@+#+@+@+#@+@+#+@+@+@+@+@+@+@+@+#+        ",
"          ++@+@+@+#+@+@+@+@+@+@+@+#@+@+@+@+|+@+@+@+|+@.         ",
"           ++++@++@++@+#+@+@+#+@+@+@+#@+#+@+#+++++++++          ",
"             ........++@+#+@+@+#+@+#@+#@+@+@++.+..+..           ",
"                      $+@+@+@+@+@+@+#@+#+@++$                   ",
"                        ++@+##+@+@+@+#@+@++                     ",
"                         +#@+@#+@+#+@+@+#+                      ",
"                          ++@+@+#@+@+#+@+                       ",
"                           ++++@++++@+++                        ",
"                             .....+....                         ",
"                                                                ",
"                                                                ",
"                                                                ",
"                                                                "};
