/* XPM */
static const char * zinjai_xpm[] = {
"64 64 402 2",
"  	c None",
". 	c #FBF777",
"+ 	c #FBF877",
"@ 	c #FAF877",
"# 	c #FAF679",
"$ 	c #FBF878",
"% 	c #F9F877",
"& 	c #F9F776",
"* 	c #FAF777",
"= 	c #FBF879",
"- 	c #F9F778",
"; 	c #FAF779",
"> 	c #FBF779",
", 	c #FBF678",
"' 	c #FAF778",
") 	c #FBF778",
"! 	c #FAF77A",
"~ 	c #FAF77B",
"{ 	c #F9F77A",
"] 	c #FAF879",
"^ 	c #F9F677",
"/ 	c #FAF876",
"( 	c #F9F777",
"_ 	c #FBF77A",
": 	c #FAF67B",
"< 	c #FBF87C",
"[ 	c #FBF87B",
"} 	c #F9F876",
"| 	c #FBF679",
"1 	c #FAF87A",
"2 	c #FBF77B",
"3 	c #FAF87B",
"4 	c #FAF77C",
"5 	c #F9F779",
"6 	c #F9F878",
"7 	c #FAF677",
"8 	c #F6F37C",
"9 	c #BCBA7D",
"0 	c #F9F67C",
"a 	c #F9F875",
"b 	c #F9F679",
"c 	c #ECE97C",
"d 	c #43427F",
"e 	c #12117F",
"f 	c #8E8C7E",
"g 	c #F9F676",
"h 	c #C5C37D",
"i 	c #1C1C7F",
"j 	c #05057F",
"k 	c #18177F",
"l 	c #F5F27D",
"m 	c #F8F776",
"n 	c #FAF87C",
"o 	c #F1EE7D",
"p 	c #D0CD7D",
"q 	c #AFAC7E",
"r 	c #89887E",
"s 	c #59587E",
"t 	c #1B1B80",
"u 	c #141380",
"v 	c #000080",
"w 	c #121180",
"x 	c #E3E17C",
"y 	c #C2C07D",
"z 	c #A09E7D",
"A 	c #78767E",
"B 	c #4B4A7F",
"C 	c #27277F",
"D 	c #15147F",
"E 	c #13127F",
"F 	c #0E0E80",
"G 	c #01017F",
"H 	c #33327F",
"I 	c #F9F77B",
"J 	c #FCF878",
"K 	c #FAF776",
"L 	c #D8D67A",
"M 	c #ABA87C",
"N 	c #7D7B7E",
"O 	c #48477E",
"P 	c #20207F",
"Q 	c #0A0A80",
"R 	c #CDCA7D",
"S 	c #CFCD7A",
"T 	c #6F6E7E",
"U 	c #1B1B7F",
"V 	c #111180",
"W 	c #0D0D80",
"X 	c #605F7F",
"Y 	c #F6EE78",
"Z 	c #F2E874",
"` 	c #F9F57B",
" .	c #F9F678",
"..	c #77757C",
"+.	c #101080",
"@.	c #03037F",
"#.	c #37367F",
"$.	c #A9542A",
"%.	c #8C1A0D",
"&.	c #8C170C",
"*.	c #E7D069",
"=.	c #FCF877",
"-.	c #BAB878",
";.	c #0E0D80",
">.	c #0C0C80",
",.	c #131280",
"'.	c #020280",
").	c #232380",
"!.	c #C9C77D",
"~.	c #A64D27",
"{.	c #800000",
"].	c #881109",
"^.	c #2B2B7F",
"/.	c #0E0E7F",
"(.	c #191980",
"_.	c #2C2C7F",
":.	c #49487E",
"<.	c #6A697F",
"[.	c #918F7E",
"}.	c #AEAB7D",
"|.	c #BFBD7D",
"1.	c #19187F",
"2.	c #24247F",
"3.	c #E8E67C",
"4.	c #A4A27B",
"5.	c #090980",
"6.	c #35347F",
"7.	c #75737F",
"8.	c #B1AF7D",
"9.	c #D1CE7D",
"0.	c #4B4B7E",
"a.	c #040480",
"b.	c #F8F678",
"c.	c #1C1B7F",
"d.	c #2E2E7F",
"e.	c #99987D",
"f.	c #DDDA7C",
"g.	c #84837E",
"h.	c #070780",
"i.	c #E1DF7D",
"j.	c #84847D",
"k.	c #00007F",
"l.	c #46457E",
"m.	c #BBB97E",
"n.	c #11107F",
"o.	c #67667E",
"p.	c #F2E774",
"q.	c #EEDF70",
"r.	c #F0E170",
"s.	c #FBF776",
"t.	c #F0EC76",
"u.	c #3B3B7E",
"v.	c #B5B37B",
"w.	c #17167F",
"x.	c #E7E57D",
"y.	c #9D3A1D",
"z.	c #8C180C",
"A.	c #8D1B0D",
"B.	c #E6E478",
"C.	c #F7F379",
"D.	c #83827E",
"E.	c #06067F",
"F.	c #73717F",
"G.	c #E1C362",
"H.	c #D2A553",
"I.	c #9A331A",
"J.	c #891109",
"K.	c #C48B46",
"L.	c #F0E472",
"M.	c #9D3C1E",
"N.	c #8F2010",
"O.	c #F0ED7C",
"P.	c #151480",
"Q.	c #A04020",
"R.	c #820402",
"S.	c #DBB95D",
"T.	c #7E7D7E",
"U.	c #09097F",
"V.	c #3A3980",
"W.	c #A14322",
"X.	c #820502",
"Y.	c #14137F",
"Z.	c #9E9C7D",
"`.	c #C28643",
" +	c #A44A25",
".+	c #8C190D",
"++	c #860D06",
"@+	c #9F3F20",
"#+	c #A54A25",
"$+	c #E8D26A",
"%+	c #FBF77C",
"&+	c #F9F774",
"*+	c #B9B77D",
"=+	c #F9F775",
"-+	c #5A597F",
";+	c #EDEA7D",
">+	c #C7C57D",
",+	c #A3A17E",
"'+	c #8A897F",
")+	c #F9F67D",
"!+	c #161580",
"~+	c #07077F",
"{+	c #6E6C7D",
"]+	c #92907D",
"^+	c #4C4C7F",
"/+	c #1C1C80",
"(+	c #080880",
"_+	c #ACAA7D",
":+	c #D6AC57",
"<+	c #CB984C",
"[+	c #962D16",
"}+	c #8E1E0F",
"|+	c #CA974C",
"1+	c #C9954B",
"2+	c #C68F47",
"3+	c #C1833F",
"4+	c #B66D34",
"5+	c #A85025",
"6+	c #C6C47D",
"7+	c #08087F",
"8+	c #060680",
"9+	c #9E9C7E",
"0+	c #952C16",
"a+	c #830603",
"b+	c #8A897E",
"c+	c #171680",
"d+	c #111080",
"e+	c #8F8D7E",
"f+	c #993219",
"g+	c #830703",
"h+	c #EEEB7C",
"i+	c #7F7E7E",
"j+	c #181780",
"k+	c #2D2D7F",
"l+	c #74727E",
"m+	c #B5B37D",
"n+	c #B9733A",
"o+	c #A85229",
"p+	c #8F1F10",
"q+	c #A85128",
"r+	c #A64D26",
"s+	c #A34723",
"t+	c #9D3B1D",
"u+	c #952B14",
"v+	c #8E1C0D",
"w+	c #F3F07D",
"x+	c #870E07",
"y+	c #DCD97D",
"z+	c #25257F",
"A+	c #4E4D7F",
"B+	c #65647F",
"C+	c #F8F57C",
"D+	c #E2C563",
"E+	c #CC994D",
"F+	c #F4EA76",
"G+	c #58577F",
"H+	c #3A397F",
"I+	c #030380",
"J+	c #69687E",
"K+	c #F9F67A",
"L+	c #71707E",
"M+	c #010180",
"N+	c #61607F",
"O+	c #E1DE7C",
"P+	c #CFCC7D",
"Q+	c #FAE774",
"R+	c #FBC663",
"S+	c #FBB159",
"T+	c #FCA251",
"U+	c #FC974C",
"V+	c #FC8B46",
"W+	c #FC8040",
"X+	c #FD753B",
"Y+	c #FD6A35",
"Z+	c #FD5F30",
"`+	c #FD532A",
" @	c #9E1109",
".@	c #900704",
"+@	c #FE331A",
"@@	c #FE3018",
"#@	c #FE381C",
"$@	c #FE3C1C",
"%@	c #FE381B",
"&@	c #FF2D14",
"*@	c #FBF975",
"=@	c #FAF67A",
"-@	c #504F7F",
";@	c #302F7F",
">@	c #E5E37D",
",@	c #100F80",
"'@	c #212180",
")@	c #FAF079",
"!@	c #FBCF68",
"~@	c #FBB85C",
"{@	c #FCA452",
"]@	c #FC8F48",
"^@	c #FD7A3D",
"/@	c #FD6633",
"(@	c #FD5129",
"_@	c #FE3D1F",
":@	c #FE2914",
"<@	c #FF140A",
"[@	c #FF0301",
"}@	c #FF0000",
"|@	c #FF0100",
"1@	c #FF150B",
"2@	c #FE2E17",
"3@	c #FE4824",
"4@	c #FD6130",
"5@	c #9D1E0F",
"6@	c #8F150B",
"7@	c #FAC360",
"8@	c #FAF075",
"9@	c #FCF777",
"0@	c #DBD87C",
"a@	c #51507F",
"b@	c #86857E",
"c@	c #FAF67C",
"d@	c #FE4422",
"e@	c #FE2F18",
"f@	c #FE1B0E",
"g@	c #FF0804",
"h@	c #FE2D16",
"i@	c #FD5229",
"j@	c #FD6E37",
"k@	c #FC8844",
"l@	c #FBBB5E",
"m@	c #FBDE6F",
"n@	c #9C3B1D",
"o@	c #8E1D0E",
"p@	c #FBF775",
"q@	c #E3E17D",
"r@	c #FF0402",
"s@	c #FE2412",
"t@	c #FE4A25",
"u@	c #FD7038",
"v@	c #FBBE5F",
"w@	c #FAEB76",
"x@	c #9B361B",
"y@	c #89150A",
"z@	c #FBF876",
"A@	c #A6A47E",
"B@	c #FC8D47",
"C@	c #FE2111",
"D@	c #FD552B",
"E@	c #FBB259",
"F@	c #FAE271",
"G@	c #DCB85B",
"H@	c #CB994A",
"I@	c #CA9648",
"J@	c #2F2E7E",
"K@	c #A4A27E",
"L@	c #FF0603",
"M@	c #FE2B15",
"N@	c #FD5E2F",
"O@	c #FC9149",
"P@	c #FBC965",
"Q@	c #94927D",
"R@	c #2C2C80",
"S@	c #E0DD7D",
"T@	c #FAF676",
"U@	c #D5D27C",
"V@	c #13137F",
"W@	c #FBD66B",
"X@	c #FD6D37",
"Y@	c #FC9C4E",
"Z@	c #F2EF7C",
"`@	c #CAC87D",
" #	c #9F9D7E",
".#	c #66657F",
"+#	c #343380",
"@#	c #050580",
"##	c #61607E",
"$#	c #D8D57D",
"%#	c #99977E",
"&#	c #2A2A7F",
"*#	c #F1EE7A",
"=#	c #11117F",
"-#	c #42417F",
";#	c #14147F",
">#	c #D2CF7D",
",#	c #FAF878",
"'#	c #CDCB79",
")#	c #43427D",
"!#	c #F9F675",
"~#	c #0F0F7F",
"{#	c #1A1A7F",
"]#	c #5D5C7F",
"^#	c #94927E",
"/#	c #141480",
"(#	c #1D1D7F",
"_#	c #3D3C7F",
":#	c #96947E",
"<#	c #BAB87D",
"[#	c #38377F",
"}#	c #8C8B7D",
"|#	c #D6D47C",
"1#	c #1D1C7E",
"2#	c #8C8A7A",
"3#	c #FBF976",
"4#	c #FAF978",
"5#	c #FBF977",
"                                                                                                                                ",
"                                                                                                                                ",
"                                                                                                                                ",
"                                                                                                                                ",
"                                                                                                                                ",
"                                                        . + @ # $ % &                                                           ",
"                                                  + * * = - ; ; > = , ' @ &                                                     ",
"                                              @ ' ) ! # ! ! ~ ! ~ { ] ! ; ^ /                                                   ",
"                                          ( ' = _ ! { ! : ~ < ~ < [ : { { ] ' * }                                               ",
"                                        @ | ! 1 2 : 3 ~ ~ ~ 3 4 3 < ~ ~ ~ 2 5 # ^ +                                             ",
"                                      / 6 # { ~ < ~ < ~ 4 < ~ ~ ~ 4 4 < 4 ~ 2 ! ] $ @                                           ",
"                                    7 ) ] { [ 4 4 4 ~ 4 4 4 4 4 4 4 4 ~ 4 4 ~ ~ _ ] $ +                                         ",
"                                  / $ ; 2 [ 4 ~ ~ 4 4 4 4 4 4 4 4 4 4 4 8 9 0 4 ~ { ] $ a                                       ",
"                                . + 1 b [ ~ 4 ~ 4 4 4 4 4 4 4 4 4 4 c d e f 4 4 4 < { ; *                                       ",
"                              g $ ; { ~ 4 4 4 4 4 4 4 4 4 4 4 4 4 h i j k l 4 4 4 3 [ ! ) m                                     ",
"                            * $ ! ! : ~ n 4 4 4 4 4 4 o p q r s t u v w q 4 4 4 ~ ~ ~ 2 ! - 7                                   ",
"                        / ' ' # ! [ 4 ~ x y z A B C D E D F G v v v v H 4 4 4 4 4 ~ 4 [ I 5 - J                                 ",
"                      K ) ; L M N O P w D u Q v v v v v v v v v v v E R 4 4 4 4 4 4 4 ~ 3 { 1 > ' %                             ",
"                    * S T U V W G v v v v v v v v v v v v v v v v w X 4 4 4 4 Y Z Z ` 4 4 ~ I ! ;  .' (                         ",
"                  ..U +.@.v v v v v v v v v v v v v v v v v v E #.y 4 4 4 4 4 $.%.&.*.4 4 n ~ ~ { ] ; $ =.                      ",
"                -.;.v v v v v v v v v v v v v v G >.,.u j '.).!.4 4 4 4 4 4 4 ~.{.].*.4 4 4 4 4 ~ : { ] = *                     ",
"              / ^.v v v v v v v /.D u u (._.:.<.[.}.|.1.'.2.3.4 4 4 4 4 4 4 4 ~.{.].*.4 4 4 ~ ~ ~ ~ ~ I 1 > '                   ",
"              4.F v v 5.D D 6.7.8.9.c 4 4 4 4 4 4 4 0.a.).3.4 4 4 4 4 4 4 4 4 ~.{.].*.4 4 4 4 4 ~ ~ n 3 2 ! ' *                 ",
"            b.c.'.,.d.e.f.4 4 4 4 4 4 4 4 4 4 4 4 g.h.j i.4 4 4 4 4 4 4 4 4 4 ~.{.].*.4 4 4 4 4 4 ~ 4 4 < 2 ! = *               ",
"            j.k.l.f.4 4 4 4 4 4 4 4 4 4 4 4 4 4 m.n.a.o.4 4 4 4 4 4 4 4 4 4 4 ~.{.].*.4 4 4 4 4 4 4 4 p.q.r.2 ] $ s.            ",
"          t.u.v.[ ~ ~ 4 4 4 4 4 4 4 4 4 4 4 4 o w.v w x.4 4 4 4 4 4 4 4 4 4 4 ~.{.].*.4 4 4 4 4 4 4 4 y.z.A.~ _ ; @             ",
"          B.C.! 3 ~ 4 4 4 4 4 4 4 4 4 4 4 4 4 D.Q E.F.4 4 4 4 4 G.H.H.H.H.H.H.I.{.J.K.H.H.H.H.H.H.L.4 M.{.N.~ 2 !  .s.          ",
"          * # ~ < 4 4 4 4 4 4 4 4 4 4 4 4 4 O.P.v w c 4 4 4 4 4 Q.{.{.{.{.{.{.{.{.{.{.{.{.{.{.{.R.S.4 M.{.N.4 < ! = $           ",
"          ' ; ~ n ~ 4 4 4 4 4 4 4 4 4 4 4 4 T.U.v V.4 4 4 4 4 4 W.{.{.{.{.{.{.{.{.{.{.{.{.{.{.{.X.S.4 M.{.N.4 < ~ ] *           ",
"          ^ ! ~ 3 ~ 4 4 4 4 4 4 4 4 4 4 4 8 Y.v U.Z.4 4 4 4 4 4 `. + + + + + +.+{.++@+ + + + + +#+$+4 M.{.N.~ < %+1 *           ",
"        &+, ; < 4 4 4 4 4 4 4 4 4 4 4 4 4 *+n.v E c 4 4 4 4 4 4 4 4 4 4 4 4 4 ~.{.].*.4 4 4 4 4 4 4 4 M.{.N.~ [ ~ ! +           ",
"        =+$ ! ~ n 4 4 4 4 4 4 4 4 4 4 4 4 -+v v 6.4 4 4 ;+>+,+7.'+4 4 4 4 4 4 ~.{.].*.4 4 4 4 4 4 4 4 M.{.N.4 4 n 1 $           ",
"        =+$ ! ~ n 4 4 4 4 4 4 4 4 4 4 4 )+!+v ~+{+]+^+/+P.u (+a._+4 4 4 4 4 4 ~.{.].*.4 :+<+<+<+<+<+<+[+{.}+<+|+1+2+3+4+5+      ",
"        &+, ; < 4 4 4 4 4 4 4 4 4 4 4 4 6+w v 7+P.8+v v v v w 9+4 4 4 4 4 4 4 ~.{.].*.4 0+{.{.{.{.{.{.{.{.{.{.{.{.{.{.{.a+      ",
"          $ ! ~ 3 ~ 4 4 4 4 4 4 4 4 o b+c+v v v v v v v v d+e+4 4 4 4 4 4 4 4 ~.{.].*.4 f+{.{.{.{.{.{.{.{.{.{.{.{.{.{.{.g+      ",
"          * ; : 4 n 4 4 4 4 4 4 h+i+P.Q v v v u u j+k+^+l+m+4 4 4 4 4 4 4 4 4 ~.{.].*.4 n+o+o+o+o+o+o+p+{.&.o+q+r+s+t+u+v+      ",
"          K ; 2 ~ 4 4 4 4 4 w+7.,.~+v E (+v E Z.O.4 4 4 4 4 4 4 4 4 4 4 4 4 4 ~.{.x+*.4 4 4 4 4 4 4 4 M.{.N.~ ~ _ ' 7           ",
"          + ' ! ~ ~ 4 4 4 y+z+h.'.D A+B+Q v !+C+4 4 4 4 4 4 4 4 4 4 4 4 4 4 4 D+<+E+F+4 4 4 4 4 4 4 4 M.{.N.4 3 ! $ &           ",
"          & $ 1 [ 4 4 4 8.U.'.u G+y+4 H+v I+J+4 4 4 4 4 4 4 4 4 4 4 4 4 4 4 4 4 4 4 4 4 4 4 4 4 4 4 4 M.{.N.~ _ # K             ",
"            * ; K+~ 0 L+M+j N+O+4 4 o w v P.P+4 4 4 4 4 4 4 4 4 4 4 4 4 4 4 4 4 Q+R+S+T+U+V+W+X+Y+Z+`+ @{..@+@@@#@$@%@&@        ",
"            *@- ; =@-@;@z >@4 4 4 4 }.,@v '@4 4 4 4 4 4 4 )@!@~@{@]@^@/@(@_@:@<@[@}@}@}@}@}@|@1@2@3@4@5@{.6@7@8@9@              ",
"              ' ' { 0@4 4 4 4 4 4 4 a@v h.b@4 4 c@X+d@e@f@g@}@}@}@}@}@}@}@}@}@g@h@i@j@k@T+l@m@4 4 ~ ~ n@{.o@# $ p@              ",
"              s.$ 1 _ ~ 4 ~ ~ 4 4 l P.v u q@4 4 X+}@}@}@}@}@}@}@}@r@s@t@u@U+v@w@4 4 4 4 4 4 4 ~ 4 4 4 x@{.y@$ z@                ",
"                + $ ] { ~ ~ 4 4 ~ A@F v 6.4 4 B@|@}@}@}@}@C@D@k@E@F@4 4 4 4 w+O.4 4 4 4 4 4 4 4 3 ~ : G@H@I@/                   ",
"                  @ $ # { ~ 3 4 ~ J@v >.K@4 {@L@[@M@N@O@P@4 4 c y Q@-+R@!+,@Q S@4 4 4 4 ~ ~ n ~ 3 2 ! > = T@                    ",
"                    / ^ ! ! 2 ! U@V@v (.w+W@X@Y@W@Z@`@ #.#+#w.u E @#v v v W b+4 4 4 4 ~ ~ ~ 3 2 3 =@> ' &                       ",
"                      g ' = # { ##'.F ,+4 $#%#B 1.E u h.v v v v v v v v v &#)+4 4 4 ~ ~ < 3 { ] > ' +                           ",
"                          =.^ *#=#v 7+-#;#P.(+v v v v v v v v v v v v v n.>#4 4 4 4 4 ~ ! ! ; $ ,#                              ",
"                            '#)#h.v @#v v v v v v v v v v v v v v v v ~+l+4 4 4 4 4 ~ 3 { ; $ !#                                ",
"                            ~#'.v v v v v v v v v v a.n.!+u {#6.]#T.r ^#l 4 4 4 ~ 4 ~ ! ]  .z@                                  ",
"                            I+v v v v v @#/#V@(#_#o.:#<#f.C+4 4 4 4 4 4 4 4 < ~ ~ 3 2 ! $ T@                                    ",
"                          '.v v v 5.W [#}#|#[ 4 4 4 4 4 4 4 4 4 4 4 4 4 4 4 4 4 [ : ! ,#*                                       ",
"                        @.k.M+@.1#2#3#* ; 1 =@[ n ~ 4 ~ 4 4 4 4 4 4 4 4 ~ 4 ~ ~ ! 1 = K                                         ",
"                        v k.          & & $ 1 2 ~ ~ < < 4 4 ~ ~ ~ ~ 4 ~ 3 n ~ 2 1 ' * &+                                        ",
"                      v k.              . 4#' # ! 2 3 ~ n 4 ~ 4 4 ~ ~ 3 3 : { 5 ) * s.                                          ",
"                                            =. .; 1 ! _ ~ : ~ ~ ~ [ %+: ! ! ' , *                                               ",
"                                              5#@  .; ; ! 1 ! ! { ! 1 1 ; - * a                                                 ",
"                                                  . J '  .$ ; = ; > - ; / +                                                     ",
"                                                        s.$ 7 7 ,#@ &                                                           ",
"                                                                                                                                ",
"                                                                                                                                ",
"                                                                                                                                ",
"                                                                                                                                ",
"                                                                                                                                "};
