/* XPM */
const static char * zinjai_xpm[] = {
"32 32 229 2",
"  	c None",
". 	c #FCF874",
"+ 	c #FBF876",
"@ 	c #FAF778",
"# 	c #FAF878",
"$ 	c #FAF677",
"% 	c #FAF775",
"& 	c #FAF773",
"* 	c #FBF974",
"= 	c #FAF879",
"- 	c #FBF77B",
"; 	c #FAF77B",
"> 	c #FBF87B",
", 	c #FBF87A",
"' 	c #FAF776",
") 	c #FBF872",
"! 	c #FAF873",
"~ 	c #FBF77A",
"{ 	c #FAF77C",
"] 	c #FAF67A",
"^ 	c #FBF877",
"/ 	c #FCF872",
"( 	c #F9F772",
"_ 	c #FAF777",
": 	c #BAB87D",
"< 	c #84837E",
"[ 	c #F8F57B",
"} 	c #FBF773",
"| 	c #F9F672",
"1 	c #FBF776",
"2 	c #F6F37C",
"3 	c #D9D67C",
"4 	c #AEAB7D",
"5 	c #5D5C7E",
"6 	c #13127F",
"7 	c #99977E",
"8 	c #FAF77A",
"9 	c #FBF777",
"0 	c #FAF774",
"a 	c #D6D279",
"b 	c #A29F7C",
"c 	c #69687E",
"d 	c #52517F",
"e 	c #42417F",
"f 	c #302F7F",
"g 	c #1F1F80",
"h 	c #100F80",
"i 	c #000080",
"j 	c #39387F",
"k 	c #FBF779",
"l 	c #F9F770",
"m 	c #C0BF75",
"n 	c #504F7C",
"o 	c #2C2C7F",
"p 	c #10107F",
"q 	c #0C0C80",
"r 	c #CAC87D",
"s 	c #D2A452",
"t 	c #9C391D",
"u 	c #E8D269",
"v 	c #FAF87B",
"w 	c #2E2D7D",
"x 	c #0D0D80",
"y 	c #1A1A7F",
"z 	c #28287F",
"A 	c #36357F",
"B 	c #45447E",
"C 	c #2D2D7F",
"D 	c #A4A27D",
"E 	c #BC793D",
"F 	c #830703",
"G 	c #DFC161",
"H 	c #F9F779",
"I 	c #FBF771",
"J 	c #818079",
"K 	c #0B0B80",
"L 	c #34337F",
"M 	c #97957E",
"N 	c #D6D37D",
"O 	c #F1EE7D",
"P 	c #D8D57D",
"Q 	c #11107F",
"R 	c #B2B07E",
"S 	c #3E3E7D",
"T 	c #98977C",
"U 	c #F8F57C",
"V 	c #33327F",
"W 	c #45447F",
"X 	c #FBF874",
"Y 	c #F7F570",
"Z 	c #F9F777",
"` 	c #CBC97D",
" .	c #993119",
"..	c #993219",
"+.	c #922412",
"@.	c #810402",
"#.	c #962E17",
"$.	c #A54D26",
"%.	c #FAF876",
"&.	c #44437F",
"*.	c #39387E",
"=.	c #902111",
"-.	c #922512",
";.	c #8F1E0F",
">.	c #810301",
",.	c #9D3A1D",
"'.	c #FAF66E",
").	c #FAF872",
"!.	c #FBF778",
"~.	c #DCD97D",
"{.	c #15147F",
"].	c #6E6C7E",
"^.	c #E2E07C",
"/.	c #B7B57D",
"(.	c #FCF870",
"_.	c #64637F",
":.	c #050580",
"<.	c #171680",
"[.	c #1B1B7F",
"}.	c #E1DE7D",
"|.	c #E9D36A",
"1.	c #BE8040",
"2.	c #EDDB6E",
"3.	c #FAF770",
"4.	c #FBF87C",
"5.	c #D2CF7D",
"6.	c #4F4E7F",
"7.	c #161580",
"8.	c #09097F",
"9.	c #20207F",
"0.	c #32317F",
"a.	c #DAD77D",
"b.	c #CB984C",
"c.	c #800000",
"d.	c #D7B159",
"e.	c #FCF878",
"f.	c #FBF870",
"g.	c #FBF96E",
"h.	c #FAF877",
"i.	c #57567E",
"j.	c #12117F",
"k.	c #07077F",
"l.	c #55547E",
"m.	c #CA944A",
"n.	c #932713",
"o.	c #E5CB66",
"p.	c #FBF875",
"q.	c #D3D17E",
"r.	c #1C1C7F",
"s.	c #BEBC7D",
"t.	c #66657F",
"u.	c #0B0B7F",
"v.	c #C4C27D",
"w.	c #FAF779",
"x.	c #FAF871",
"y.	c #87867E",
"z.	c #DAD77C",
"A.	c #31307F",
"B.	c #33327E",
"C.	c #B56C36",
"D.	c #AA562B",
"E.	c #9B351B",
"F.	c #9E3D1F",
"G.	c #A95329",
"H.	c #A44A23",
"I.	c #A64D23",
"J.	c #C1BF7D",
"K.	c #0A0A80",
"L.	c #6C6B7D",
"M.	c #F9F67D",
"N.	c #EEEB7C",
"O.	c #8F1F10",
"P.	c #840904",
"Q.	c #840804",
"R.	c #820502",
"S.	c #860C05",
"T.	c #58577F",
"U.	c #171780",
"V.	c #DDDA7C",
"W.	c #F5F27D",
"X.	c #D0CD7D",
"Y.	c #93917E",
"Z.	c #5F5E7E",
"`.	c #49487F",
" +	c #1B1B80",
".+	c #89887D",
"++	c #E2C764",
"@+	c #DFC060",
"#+	c #B97439",
"$+	c #BC7A39",
"%+	c #D1A34C",
"&+	c #FAF772",
"*+	c #F6F378",
"=+	c #22227F",
"-+	c #2F2F7F",
";+	c #5C5B7E",
">+	c #3A397F",
",+	c #1E1E80",
"'+	c #3C3B80",
")+	c #C58C43",
"!+	c #C1843B",
"~+	c #2C2C7C",
"{+	c #02027F",
"]+	c #090980",
"^+	c #2A2A80",
"/+	c #3C3B7F",
"(+	c #3D3C7F",
"_+	c #D2CF7E",
":+	c #FAF676",
"<+	c #B97435",
"[+	c #010180",
"}+	c #01017F",
"|+	c #44437E",
"1+	c #66657E",
"2+	c #97957D",
"3+	c #F9F778",
"4+	c #FAF771",
"5+	c #A85022",
"6+	c #800100",
"7+	c #00007F",
"8+	c #EAE972",
"9+	c #FAF679",
"0+	c #FBF770",
"a+	c #F9F774",
"b+	c #FAF973",
"c+	c #FAF672",
"d+	c #F9F675",
"e+	c #FBF878",
"f+	c #FCF776",
"                                                                ",
"                                                                ",
"                                                                ",
"                        . + @ # $ % &                           ",
"                    * + = - ; ; > , = ' )                       ",
"                  ! # ~ ; { ; { ; { ; ] ^ /                     ",
"                ( _ > ; { { { { { : < [ , $ }                   ",
"              | 1 ] ; { { 2 3 4 5 6 7 { ; 8 9                   ",
"            0 a b c d e f g h i i j { { { ; k + l               ",
"        m n o p i i i i i i i q j r { s t u v ~ $ %             ",
"        w i i i x y z A B C h D { { { E F G ; ; 8 H % I         ",
"      J K L 5 M N O { { P Q R { { { { E F G { { ; ; 8 +         ",
"      S T [ { { { { { U V W { { { { { E F G { { { { ; k X       ",
"    Y Z ; { { { { { { D h ` { {  .....+.@.#.....$.{ ; > %.      ",
"    / Z ; { { { { { { &.*.{ { { =.-.-.;.>.+.-.-.,.{ { v _ '.    ",
"    ).!.; { { { { { ~.{.].{ ^./.~.{ { E F G { { { { { ; !.(.    ",
"    ).!.> { { { { { _.:.j C <.[.}.{ { E F G { |.1.2.{ ; !.3.    ",
"    (.# 4.{ { { 5.6.7.8.9.0.e a.{ { { E F G { b.c.d.{ v e.f.    ",
"    g.h.; { O i.j.f k.l.2 { { { { { { m.n.o.{ b.c.d.; > ^       ",
"      p., q.r.j s.t.u.v.{ { { { { { { { { { { b.c.d.; w.X       ",
"      x.^ y.z.{ { A.B.{ { { { { { { { { C.D.D.E.c.F.G.H.I.      ",
"        X w.; { J.K.L.{ { { { { { { M.N.O.P.P.P.c.Q.F R.S.      ",
"          X @ v T.U.V.{ W.X.Y.Z.`.V  +.+++G @+#+c.$+%+          ",
"            &+*+=+-+;+>+,+u.i i i i '+M.{ ; ] )+c.!+            ",
"              ~+{+{+i i i ]+y ^+/+(+_+{ { , :+<+c.              ",
"              [+}+ +|+1+2+r N.{ { { { { ; 3+4+5+6+              ",
"            7+k.  8+' 9+; ; ; { ; ; ; , Z 0                     ",
"                    0+a+# ~ > ; 8 8 ~ h.b+                      ",
"                        c+d+1 $ ^ e+f+I                         ",
"                                                                ",
"                                                                ",
"                                                                "};
